<?xml version="1.0" encoding="UTF-8"?>
<svg xmlns="http://www.w3.org/2000/svg" width="24" height="24" viewBox="0 0 24 24" fill="none" stroke="currentColor" stroke-width="2" stroke-linecap="round" stroke-linejoin="round">
  <path d="M3 7c0-1 .6-3 3-3s3 2 3 3 .6 3 3 3 3-2 3-3 .6-3 3-3 3 2 3 3"></path>
  <path d="M3 14c0-1 .6-3 3-3s3 2 3 3 .6 3 3 3 3-2 3-3 .6-3 3-3 3 2 3 3"></path>
  <path d="M3 7v7"></path>
  <path d="M21 7v7"></path>
  <circle cx="7.5" cy="10.5" r="1"></circle>
  <circle cx="16.5" cy="10.5" r="1"></circle>
</svg> 