<?xml version="1.0" encoding="UTF-8"?>
<svg xmlns="http://www.w3.org/2000/svg" width="24" height="24" viewBox="0 0 24 24" fill="none" stroke="currentColor" stroke-width="2" stroke-linecap="round" stroke-linejoin="round">
  <path d="M5 3c-.5 0-1 .5-1 1.5S5 8 5 8s1-2 1-3.5-.5-1.5-1-1.5"></path>
  <path d="M19 8c-1 0-1.3.8-1.5 1.5S17 11 16 11s-1.3-.5-1.5-1.5S14 8 13 8s-1.3.5-1.5 1.5S11 11 10 11s-1.3-.5-1.5-1.5S8 8 7 8s-1.3.8-1.5 1.5S5 11 4 11s-1.3-.8-1.5-1.5S2 8 1 8v7c1 0 1.3.5 1.5 1.5S3 19 4 19s1.3-.8 1.5-1.5S6 16 7 16s1.3.5 1.5 1.5S9 19 10 19s1.3-.5 1.5-1.5.5-1.5 1.5-1.5 1.3.5 1.5 1.5.5 1.5 1.5 1.5 1.3-.5 1.5-1.5.5-1.5 1.5-1.5 1.3.8 1.5 1.5.5 1.5 1.5 1.5v-7"></path>
</svg> 